<svg width="23" height="23" viewBox="0 0 23 23" fill="none" xmlns="http://www.w3.org/2000/svg">
<path d="M20.125 9.58333C20.125 16.2917 11.5 22.0417 11.5 22.0417C11.5 22.0417 2.875 16.2917 2.875 9.58333C2.875 7.29584 3.7837 5.10203 5.4012 3.48453C7.0187 1.86703 9.21251 0.958328 11.5 0.958328C13.7875 0.958328 15.9813 1.86703 17.5988 3.48453C19.2163 5.10203 20.125 7.29584 20.125 9.58333Z" stroke="white" stroke-width="1.3" stroke-linecap="round" stroke-linejoin="round"/>
<path d="M11.5 12.4583C13.0878 12.4583 14.375 11.1711 14.375 9.58333C14.375 7.99551 13.0878 6.70833 11.5 6.70833C9.91218 6.70833 8.625 7.99551 8.625 9.58333C8.625 11.1711 9.91218 12.4583 11.5 12.4583Z" stroke="white" stroke-width="1.3" stroke-linecap="round" stroke-linejoin="round"/>
</svg>
